<svg height="44" viewBox="0 0 272 44" width="272" xmlns="http://www.w3.org/2000/svg"><g fill="none" fill-rule="nonzero"><g fill="#ef3e33" transform="translate(0 0)"><path d="m145.475897 42.8542373h-15.797948c-8.610257 0-17.744616-5.8305085-17.744616-21.5 0-12.82711866 8.31077-20.6983051 17.744616-20.6983051h15.797948v13.6288136h-11.530256c-2.09641 0-6.888205.8016949-6.888205 7.2881356 0 6.559322 4.866667 7.5067796 6.888205 7.5067796h11.530256z"/><path d="m39.6071795 29.5169492c5.5405128 0 7.1876923-3.061017 7.1876923-6.7779661 0-3.7169492-1.6471795-6.7779662-7.1876923-6.7779662h-7.7866667v-3.6440677h17.4451282v-11.58813564h-32.9435897v15.23220334h-8.90974361c-5.54051282 0-7.1876923 3.061017-7.1876923 6.7779662 0 3.7169491 1.57230769 6.7779661 7.1876923 6.7779661h8.76000001v13.4101694h15.6482051v-13.4101694z"/><path d="m88.3487179 42.8542373 6.8882052-30.3915254v30.3915254h13.7764099v-42.12542374h-14.5999997c-8.76 0-9.5835897 4.3-10.7815384 9.47457624l-2.92 13.7016949-2.8451282-13.7016949c-1.1979488-5.17457624-2.0215385-9.47457624-10.7815385-9.47457624h-14.6v42.19830504h13.7764103v-30.3915254l6.8882051 30.3915254h15.1989743z"/></g><path d="m159 1h1v43h-1z" fill="#ef3e33"/><g fill="#4d4d4f" transform="translate(167 11)"><path d="m6.375 6.396875h-4.05l-.675 1.653125h-1.35l3.3-7.90625h1.575l3.3 7.90625h-1.35zm-3.675-1.078125h3.3l-1.65-4.16875z"/><path d="m13.425 4.3125c0-.934375-.525-1.221875-1.275-1.221875-.675 0-1.35.43125-1.65.8625v4.096875h-1.125v-5.75h1.125v.790625c.375-.43125 1.2-.934375 2.1-.934375 1.275 0 1.95.646875 1.95 1.86875v4.025h-1.125z"/><path d="m24.75 6.396875h-4.05l-.675 1.653125h-1.35l3.3-7.90625h1.575l3.3 7.90625h-1.35zm-3.75-1.078125h3.3l-1.65-4.16875z"/><path d="m28.2 8.696875c.525.575 1.125.790625 1.95.790625.9 0 1.875-.43125 1.875-1.653125v-.71875c-.45.575-1.125 1.00625-1.95 1.00625-1.575 0-2.625-1.078125-2.625-2.946875s1.125-2.946875 2.625-2.946875c.75 0 1.5.359375 1.95 1.00625v-.8625h1.125v5.534375c0 1.940625-1.5 2.515625-3 2.515625-.975 0-1.725-.215625-2.475-.8625zm3.75-4.74375c-.3-.43125-.975-.8625-1.65-.8625-1.125 0-1.8.8625-1.8 2.0125s.675 2.0125 1.8 2.0125c.675 0 1.35-.359375 1.65-.8625z"/><path d="m34.875 2.3h1.125v.8625c.45-.575 1.2-1.00625 1.95-1.00625v1.078125c-.075 0-.225 0-.375 0-.525 0-1.275.43125-1.575.8625v3.953125h-1.125z"/><path d="m38.85.71875c0-.359375.3-.646875.75-.646875.375 0 .75.2875.75.646875s-.3.71875-.75.71875c-.375-.071875-.75-.359375-.75-.71875zm.15 1.58125h1.125v5.75h-1.125z"/><path d="m44.625 2.15625c1.125 0 1.8.43125 2.25 1.00625l-.75.646875c-.375-.503125-.825-.71875-1.425-.71875-1.2 0-1.95.8625-1.95 2.084375s.75 2.084375 1.95 2.084375c.6 0 1.125-.215625 1.425-.71875l.75.646875c-.45.575-1.125 1.00625-2.25 1.00625-1.8 0-3.075-1.29375-3.075-3.01875s1.2-3.01875 3.075-3.01875z"/><path d="m52.125 7.259375c-.45.503125-1.2.934375-2.1.934375-1.275 0-1.875-.646875-1.875-1.796875v-4.025h1.125v3.665625c0 .934375.525 1.221875 1.275 1.221875.675 0 1.35-.359375 1.65-.790625v-4.096875h1.125v5.75h-1.125v-.8625z"/><path d="m54.975.071875h1.125v7.90625h-1.125z"/><path d="m58.05 6.75625v-3.521875h-.975v-.934375h.975v-1.58125h1.125v1.58125h1.2v.934375h-1.2v3.30625c0 .43125.225.71875.6.71875.225 0 .525-.071875.6-.215625l.3.790625c-.225.215625-.6.359375-1.2.359375-.9-.071875-1.425-.575-1.425-1.4375z"/><path d="m65.7 7.259375c-.45.503125-1.2.934375-2.1.934375-1.275 0-1.875-.646875-1.875-1.796875v-4.025h1.125v3.665625c0 .934375.525 1.221875 1.275 1.221875.675 0 1.35-.359375 1.65-.790625v-4.096875h1.125v5.75h-1.125v-.8625z"/><path d="m68.55 2.3h1.125v.8625c.45-.575 1.2-1.00625 1.95-1.00625v1.078125c-.075 0-.225 0-.375 0-.525 0-1.275.43125-1.575.8625v3.953125h-1.125z"/><path d="m76.425 7.403125c-.45.503125-1.125.790625-1.95.790625-.975 0-2.1-.646875-2.1-1.86875 0-1.29375 1.05-1.86875 2.1-1.86875.825 0 1.5.215625 1.95.790625v-.934375c0-.71875-.6-1.15-1.425-1.15-.675 0-1.275.215625-1.8.790625l-.45-.71875c.675-.646875 1.5-.934375 2.475-.934375 1.275 0 2.4.575 2.4 2.0125v3.88125h-1.125v-.790625zm0-1.653125c-.3-.43125-.9-.646875-1.5-.646875-.825 0-1.35.43125-1.35 1.15 0 .646875.6 1.15 1.35 1.15.6 0 1.2-.215625 1.5-.646875z"/><path d="m79.35.071875h1.125v7.90625h-1.125z"/><path d="m1.35 18.54375c.525.575 1.425 1.15 2.625 1.15 1.35 0 1.8-.646875 1.8-1.221875 0-.8625-.975-1.078125-2.025-1.29375-1.35-.359375-2.85-.71875-2.85-2.3 0-1.29375 1.2-2.228125 2.925-2.228125 1.275 0 2.25.359375 3 1.078125l-.75.8625c-.6-.646875-1.5-.934375-2.4-.934375s-1.575.43125-1.575 1.15.9.934375 1.95 1.15c1.35.359375 2.925.71875 2.925 2.44375 0 1.221875-.9 2.371875-3.15 2.371875-1.5 0-2.55-.503125-3.225-1.221875z"/><path d="m11.1 14.734375c1.125 0 1.8.43125 2.25 1.00625l-.75.646875c-.375-.503125-.825-.71875-1.425-.71875-1.2 0-1.95.8625-1.95 2.084375s.75 2.084375 1.95 2.084375c.6 0 1.125-.215625 1.425-.71875l.75.646875c-.45.575-1.125 1.00625-2.25 1.00625-1.8 0-3.075-1.29375-3.075-3.01875s1.275-3.01875 3.075-3.01875z"/><path d="m14.4 13.296875c0-.359375.3-.646875.75-.646875.375 0 .75.2875.75.646875s-.3.71875-.75.71875c-.45-.071875-.75-.359375-.75-.71875zm.15 1.58125h1.125v5.75h-1.125z"/><path d="m20.1 14.734375c1.8 0 2.925 1.365625 2.925 3.090625v.2875h-4.725c.075 1.00625.825 1.796875 2.025 1.796875.6 0 1.35-.215625 1.8-.646875l.525.71875c-.6.575-1.425.8625-2.4.8625-1.8 0-3.075-1.221875-3.075-3.01875-.075-1.796875 1.125-3.090625 2.925-3.090625zm-1.875 2.5875h3.675c0-.790625-.525-1.725-1.8-1.725-1.2 0-1.8.934375-1.875 1.725z"/><path d="m28.425 16.890625c0-.934375-.525-1.221875-1.275-1.221875-.675 0-1.35.43125-1.65.8625v4.096875h-1.125v-5.75h1.125v.790625c.375-.43125 1.2-.934375 2.1-.934375 1.275 0 1.95.646875 1.95 1.86875v4.025h-1.125z"/><path d="m33.975 14.734375c1.125 0 1.8.43125 2.25 1.00625l-.75.646875c-.375-.503125-.825-.71875-1.425-.71875-1.2 0-1.95.8625-1.95 2.084375s.75 2.084375 1.95 2.084375c.6 0 1.125-.215625 1.425-.71875l.75.646875c-.45.575-1.125 1.00625-2.25 1.00625-1.8 0-3.075-1.29375-3.075-3.01875s1.275-3.01875 3.075-3.01875z"/><path d="m40.05 14.734375c1.8 0 2.925 1.365625 2.925 3.090625v.2875h-4.725c.075 1.00625.825 1.796875 2.025 1.796875.6 0 1.35-.215625 1.8-.646875l.525.71875c-.6.575-1.425.8625-2.4.8625-1.8 0-3.075-1.221875-3.075-3.01875-.075-1.796875 1.2-3.090625 2.925-3.090625zm-1.8 2.5875h3.675c0-.790625-.525-1.725-1.8-1.725s-1.875.934375-1.875 1.725z"/><path d="m44.4 19.046875c.375.43125 1.2.790625 2.025.790625s1.275-.359375 1.275-.790625c0-.575-.675-.790625-1.425-.934375-1.05-.215625-2.175-.503125-2.175-1.725 0-.934375.825-1.725 2.25-1.725 1.05 0 1.8.359375 2.25.790625l-.525.71875c-.375-.43125-1.05-.71875-1.8-.71875s-1.2.2875-1.2.71875c0 .503125.675.646875 1.35.8625 1.05.215625 2.25.503125 2.25 1.796875 0 1.00625-.825 1.725-2.4 1.725-.975 0-1.875-.2875-2.475-.8625z"/><path d="m53.025 16.675c0-2.44375 1.875-4.096875 4.2-4.096875 1.65 0 2.625.71875 3.3 1.653125l-1.05.503125c-.45-.646875-1.275-1.15-2.25-1.15-1.65 0-2.925 1.221875-2.925 3.01875s1.275 3.01875 2.925 3.01875c.975 0 1.8-.503125 2.25-1.15l1.05.503125c-.675.934375-1.65 1.653125-3.3 1.653125-2.325.071875-4.2-1.58125-4.2-3.953125z"/><path d="m61.35 17.753125c0-1.653125 1.2-3.01875 3-3.01875 1.875 0 3 1.365625 3 3.01875s-1.125 3.01875-3 3.01875c-1.8-.071875-3-1.365625-3-3.01875zm4.875 0c0-1.078125-.675-2.084375-1.875-2.084375s-1.875 1.00625-1.875 2.084375.675 2.084375 1.875 2.084375c1.275-.071875 1.875-1.00625 1.875-2.084375z"/><path d="m76.05 16.746875c0-.646875-.3-1.078125-1.05-1.078125-.6 0-1.2.43125-1.5.790625v4.096875h-1.125v-3.809375c0-.646875-.3-1.078125-1.05-1.078125-.6 0-1.2.43125-1.425.8625v4.096875h-1.125v-5.75h1.125v.790625c.225-.359375 1.05-.934375 1.95-.934375s1.425.43125 1.65 1.078125c.375-.503125 1.125-1.078125 2.025-1.078125 1.125 0 1.725.575 1.725 1.725v4.16875h-1.125v-3.88125z"/><path d="m78.975 22.784375v-7.90625h1.125v.790625c.45-.575 1.125-.934375 1.95-.934375 1.575 0 2.625 1.15 2.625 3.01875s-1.125 3.01875-2.625 3.01875c-.75 0-1.5-.359375-1.95-1.00625v3.01875zm2.775-7.115625c-.675 0-1.35.359375-1.65.8625v2.44375c.3.43125.975.8625 1.65.8625 1.125 0 1.8-.8625 1.8-2.084375s-.675-2.084375-1.8-2.084375z"/><path d="m89.775 19.98125c-.45.503125-1.125.790625-1.95.790625-.975 0-2.1-.646875-2.1-1.86875 0-1.29375 1.05-1.86875 2.1-1.86875.825 0 1.5.215625 1.95.790625v-.934375c0-.71875-.6-1.15-1.425-1.15-.675 0-1.275.215625-1.8.790625l-.45-.71875c.675-.646875 1.5-.934375 2.475-.934375 1.275 0 2.4.575 2.4 2.0125v3.88125h-1.125v-.790625zm0-1.653125c-.3-.43125-.9-.646875-1.5-.646875-.825 0-1.35.43125-1.35 1.15 0 .646875.6 1.15 1.35 1.15.6 0 1.2-.215625 1.5-.646875z"/><path d="m96.75 16.890625c0-.934375-.525-1.221875-1.275-1.221875-.675 0-1.35.43125-1.65.8625v4.096875h-1.125v-5.75h1.125v.790625c.375-.43125 1.2-.934375 2.1-.934375 1.275 0 1.95.646875 1.95 1.86875v4.025h-1.125z"/><path d="m99.975 21.99375c.375 0 .675-.14375.9-.575l.375-.790625-2.475-5.75h1.2l1.875 4.528125 1.875-4.528125h1.2l-2.925 6.828125c-.375.934375-1.05 1.221875-1.875 1.221875-.15 0-.525 0-.675-.071875l.15-.934375s.225.071875.375.071875z"/></g></g></svg>